<?xml version="1.0" standalone="no"?>
<!DOCTYPE svg PUBLIC "-//W3C//DTD SVG 20010904//EN"
 "http://www.w3.org/TR/2001/REC-SVG-20010904/DTD/svg10.dtd">
<svg version="1.0" xmlns="http://www.w3.org/2000/svg"
 width="16.000000pt" height="16.000000pt" viewBox="0 0 16.000000 16.000000"
 preserveAspectRatio="xMidYMid meet">
<metadata>
Created by potrace 1.11, written by Peter Selinger 2001-2013
</metadata>
<g transform="translate(0.000000,16.000000) scale(0.001639,-0.001639)"
fill="#000000" stroke="none">
<path d="M1978 8765 c-2 -2 -23 -6 -48 -10 -165 -24 -388 -125 -525 -237 -5
-4 -30 -25 -55 -45 -79 -65 -230 -225 -303 -323 -39 -52 -74 -97 -77 -100 -3
-3 -11 -17 -19 -32 -8 -15 -23 -37 -33 -48 -10 -11 -16 -20 -12 -20 4 0 -1
-10 -12 -22 -10 -13 -25 -34 -33 -48 -8 -14 -27 -47 -43 -75 -101 -178 -341
-703 -327 -717 1 -2 -4 -14 -11 -28 -8 -14 -15 -27 -15 -30 -2 -15 -29 -86
-35 -95 -4 -5 -11 -23 -15 -40 -5 -16 -9 -32 -10 -35 -1 -3 -25 -77 -53 -165
-42 -130 -125 -416 -148 -510 -3 -11 -7 -27 -9 -35 -2 -8 -4 -15 -5 -15 -1 0
-3 -7 -5 -15 -2 -8 -6 -26 -9 -40 -5 -24 -10 -46 -21 -90 -3 -11 -7 -28 -9
-37 -2 -10 -10 -40 -16 -68 -7 -27 -14 -59 -16 -70 -2 -11 -10 -49 -19 -85 -9
-36 -18 -76 -20 -90 -1 -14 -8 -43 -13 -65 -6 -22 -13 -53 -16 -70 -3 -16 -7
-41 -11 -55 -23 -100 -19 -236 11 -338 24 -85 86 -209 111 -225 7 -4 13 -12
13 -17 0 -12 75 -88 128 -128 51 -40 198 -111 239 -115 16 -2 34 -7 41 -11 17
-10 187 -14 237 -5 75 13 97 20 158 45 182 73 333 233 397 418 11 32 21 68 23
79 1 12 5 27 9 32 3 6 9 26 13 45 4 19 10 40 13 45 4 6 7 15 8 21 1 6 14 51
30 100 15 49 29 91 29 94 0 3 14 45 29 94 16 49 29 94 31 100 1 6 5 18 8 26 7
17 67 216 72 240 2 8 4 16 5 18 2 1 3 5 4 10 9 33 50 164 61 195 8 20 14 39
14 42 -1 3 4 18 9 33 9 22 53 165 57 182 0 3 12 39 25 80 13 41 25 77 25 80 3
16 48 149 58 170 97 205 254 245 382 97 49 -57 46 -52 87 -142 20 -44 50 -109
66 -145 16 -36 40 -87 52 -115 86 -193 225 -484 268 -560 6 -11 36 -63 66
-117 56 -98 131 -221 153 -248 6 -8 35 -46 64 -85 70 -92 91 -116 174 -200 72
-71 192 -166 255 -201 19 -10 37 -21 40 -24 5 -5 23 -14 100 -48 64 -29 172
-60 262 -76 68 -11 290 -13 353 -3 26 5 109 20 115 22 3 1 12 4 20 7 8 4 40
14 70 23 103 31 280 130 354 198 13 12 35 31 48 41 51 42 88 76 84 76 -3 0 11
17 32 38 55 56 110 123 174 215 32 45 65 91 73 102 8 10 15 25 15 31 0 7 4 14
9 16 5 2 36 53 70 113 34 61 66 117 71 125 6 8 14 24 19 35 5 11 45 94 88 185
44 91 87 181 95 200 9 19 34 75 57 123 23 49 41 91 41 94 0 5 32 74 94 203 23
48 99 132 131 145 56 22 103 22 152 -2 39 -18 123 -100 123 -120 0 -7 4 -13 9
-13 7 0 53 -96 139 -290 32 -72 72 -161 95 -210 11 -25 21 -47 22 -50 0 -3 8
-21 17 -40 27 -61 60 -134 78 -175 10 -22 29 -65 42 -95 14 -30 31 -70 38 -87
7 -18 16 -33 20 -33 3 0 7 -6 7 -13 0 -7 9 -33 20 -58 34 -71 72 -157 115
-254 21 -49 47 -108 57 -130 11 -22 29 -62 41 -90 20 -45 509 -1138 548 -1225
9 -19 16 -37 17 -40 1 -3 11 -26 23 -52 12 -27 30 -67 41 -90 10 -24 28 -63
39 -88 11 -25 41 -92 67 -150 25 -58 54 -121 63 -140 9 -19 17 -37 17 -40 1
-3 14 -32 29 -65 42 -91 124 -296 133 -330 4 -17 53 -148 68 -180 7 -16 17
-41 20 -55 4 -14 13 -38 20 -55 8 -16 25 -61 39 -100 14 -38 37 -101 51 -140
15 -38 62 -169 106 -290 44 -121 88 -240 97 -265 9 -25 17 -47 18 -50 0 -3 4
-13 7 -22 15 -40 20 -54 23 -63 6 -26 108 -308 132 -365 71 -173 214 -314 382
-377 36 -14 74 -27 85 -29 136 -30 278 -24 391 16 30 10 54 16 54 14 0 -3 6 0
13 6 6 6 40 27 74 48 62 37 173 130 173 145 0 4 11 20 25 35 35 37 90 153 113
237 21 76 27 239 12 297 -5 18 -11 44 -14 58 -3 14 -19 63 -36 110 -17 47 -44
126 -61 175 -17 50 -35 99 -40 110 -5 11 -18 49 -29 85 -12 36 -25 74 -30 85
-10 22 -88 241 -95 265 -6 23 -195 542 -205 565 -5 11 -27 72 -50 135 -23 63
-45 124 -50 135 -5 11 -25 65 -45 120 -34 92 -76 202 -95 250 -5 11 -37 94
-71 185 -34 91 -69 181 -77 200 -9 19 -16 37 -17 40 0 3 -18 50 -40 105 -22
55 -40 105 -41 110 -1 6 -12 33 -24 60 -12 28 -25 59 -29 70 -5 11 -29 70 -55
132 -25 62 -46 115 -46 118 0 4 -11 31 -25 61 -14 30 -25 60 -25 67 0 7 -4 17
-8 22 -5 6 -17 30 -26 55 -10 25 -25 61 -33 80 -34 77 -42 97 -63 149 -11 30
-29 73 -39 95 -11 23 -38 86 -61 141 -23 55 -50 118 -60 140 -11 22 -35 76
-54 120 -19 44 -44 103 -57 130 -13 28 -24 52 -24 55 -1 5 -17 39 -82 180 -20
41 -47 100 -61 130 -13 30 -62 133 -108 228 -46 96 -84 177 -84 181 0 4 -6 13
-12 19 -7 7 -13 16 -14 20 0 9 -37 85 -44 92 -10 10 -42 79 -39 83 2 3 -3 13
-11 23 -8 11 -31 51 -50 89 -19 39 -37 72 -40 75 -3 3 -21 34 -39 70 -18 36
-51 94 -71 130 -21 36 -49 85 -61 110 -13 25 -40 71 -61 102 -21 31 -38 59
-38 62 0 7 -62 105 -111 178 -22 31 -39 61 -39 66 0 6 -3 12 -8 14 -4 2 -24
29 -45 60 -20 31 -44 64 -53 72 -8 9 -13 16 -10 16 3 0 -1 8 -9 18 -8 9 -41
51 -72 93 -91 120 -141 177 -248 285 -169 170 -323 270 -482 312 -58 16 -101
19 -220 17 -81 -1 -161 -5 -178 -8 -16 -3 -46 -8 -65 -12 -151 -26 -348 -123
-490 -239 -65 -53 -180 -167 -180 -177 0 -5 -3 -9 -7 -9 -8 0 -86 -95 -158
-194 -47 -65 -189 -299 -201 -331 -4 -11 -11 -22 -15 -25 -6 -4 -181 -357
-184 -370 -5 -24 -18 -50 -26 -50 -5 0 -8 -3 -7 -7 2 -5 -8 -33 -22 -63 -13
-30 -24 -57 -25 -60 -1 -3 -14 -32 -29 -65 -15 -33 -31 -69 -36 -80 -96 -225
-171 -329 -260 -358 -86 -29 -154 -7 -230 74 -56 59 -58 64 -212 409 -157 353
-326 686 -394 777 -13 17 -24 35 -24 39 0 7 -99 150 -137 199 -100 126 -243
271 -316 320 -8 6 -42 29 -76 53 -33 23 -61 40 -61 36 0 -4 -8 0 -17 8 -19 16
-65 38 -128 61 -22 8 -49 18 -60 23 -11 4 -26 8 -34 10 -7 1 -34 7 -60 13 -25
6 -59 14 -76 17 -30 7 -301 14 -307 9z"/>
</g>
</svg>
